<?xml version="1.0" standalone="no"?>
<!DOCTYPE svg PUBLIC "-//W3C//DTD SVG 20010904//EN"
 "http://www.w3.org/TR/2001/REC-SVG-20010904/DTD/svg10.dtd">
<svg version="1.0" xmlns="http://www.w3.org/2000/svg"
 width="512.000000pt" height="512.000000pt" viewBox="0 0 512.000000 512.000000"
 preserveAspectRatio="xMidYMid meet">
<metadata>
Created by potrace 1.14, written by Peter Selinger 2001-2017
</metadata>
<g transform="translate(0.000000,512.000000) scale(0.100000,-0.100000)"
fill="#000000" stroke="none">
<path d="M1387 4843 c-3 -3 -38 -7 -79 -9 -72 -4 -102 -8 -144 -17 -12 -3 -37
-8 -56 -11 -20 -3 -47 -10 -62 -15 -14 -6 -26 -8 -26 -5 0 4 -6 1 -14 -5 -8
-7 -24 -14 -37 -16 -91 -18 -334 -151 -443 -244 -74 -63 -209 -209 -252 -275
-27 -39 -52 -72 -56 -74 -4 -2 -8 -12 -8 -23 0 -10 -4 -19 -8 -19 -8 0 -90
-167 -97 -195 -1 -5 -5 -17 -8 -25 -77 -194 -102 -471 -62 -695 3 -16 8 -48
11 -70 4 -22 11 -51 15 -64 5 -13 8 -26 5 -28 -2 -3 0 -19 5 -36 9 -28 15 -52
23 -92 3 -14 37 -126 44 -145 3 -8 6 -17 7 -20 7 -30 30 -88 38 -97 5 -7 7
-13 4 -13 -7 0 42 -120 55 -134 4 -6 8 -16 8 -24 0 -8 10 -28 22 -45 13 -18
16 -28 7 -23 -7 4 -6 1 4 -7 10 -9 18 -18 17 -21 -1 -7 42 -98 50 -106 3 -3
15 -25 28 -50 12 -25 42 -76 66 -115 25 -38 54 -87 66 -108 11 -20 25 -37 30
-37 6 0 10 -5 10 -11 0 -12 52 -89 76 -113 8 -9 13 -16 9 -16 -3 0 -1 -6 5
-12 5 -7 24 -29 40 -48 16 -19 30 -40 30 -47 0 -6 4 -13 9 -15 4 -2 42 -43 82
-93 40 -49 78 -95 84 -101 153 -172 311 -334 444 -454 46 -41 89 -80 95 -85
37 -34 186 -152 280 -222 61 -45 120 -89 131 -98 10 -8 25 -15 32 -15 7 0 13
-4 13 -8 0 -5 12 -15 28 -23 15 -8 36 -22 46 -31 11 -10 26 -18 33 -18 7 0 13
-4 13 -10 0 -5 6 -10 14 -10 8 0 16 -4 18 -8 4 -11 223 -132 308 -170 36 -17
88 -40 115 -53 28 -13 54 -22 59 -21 4 2 13 -2 20 -7 13 -11 56 -11 56 0 0 4
10 9 23 13 13 3 43 14 68 25 24 11 47 20 51 21 7 1 111 54 193 98 117 63 225
130 237 147 4 5 8 7 8 2 0 -10 343 233 370 263 3 3 28 23 55 45 69 55 104 85
142 122 18 18 33 30 33 27 0 -15 321 308 428 431 23 28 53 61 66 75 36 39 186
228 186 235 0 3 5 11 10 18 6 7 23 28 40 47 16 19 35 46 42 60 7 14 17 28 23
32 6 5 6 8 1 8 -6 0 -2 6 7 13 47 36 317 533 352 650 1 4 4 9 5 12 1 3 3 8 5
13 1 4 7 19 13 33 6 15 12 35 14 45 2 11 5 21 8 24 5 5 36 100 45 138 3 9 9
37 16 62 12 52 14 59 34 160 8 41 16 84 19 95 22 109 23 312 0 453 -4 20 -7
42 -8 49 -1 7 -5 15 -8 19 -4 3 -5 11 -2 18 2 6 -4 37 -15 69 -11 31 -17 57
-14 57 3 0 1 6 -4 13 -6 6 -16 30 -23 52 -7 22 -17 46 -23 53 -5 6 -6 12 -2
12 5 0 1 8 -8 18 -10 10 -14 22 -10 25 3 4 1 7 -5 7 -7 0 -12 7 -12 15 0 15
-19 55 -31 65 -3 3 -14 21 -24 40 -10 19 -24 39 -31 43 -8 4 -14 14 -14 21 0
7 -9 23 -19 35 -11 12 -34 41 -53 63 -42 53 -188 198 -199 198 -4 0 -19 11
-33 25 -14 14 -28 25 -31 25 -3 0 -26 15 -52 34 -53 37 -248 136 -269 136 -8
0 -14 5 -14 11 0 5 -4 8 -8 5 -5 -3 -43 6 -84 18 -83 26 -185 45 -260 49 -27
1 -48 5 -48 9 0 4 -10 4 -22 -1 -13 -5 -32 -5 -43 -1 -11 4 -28 4 -37 -1 -10
-6 -19 -5 -23 1 -5 8 -11 7 -21 -1 -11 -9 -14 -9 -14 0 0 7 -5 9 -12 5 -7 -5
-27 -9 -45 -11 -41 -3 -91 -10 -123 -17 -14 -3 -36 -7 -50 -10 -196 -40 -455
-169 -582 -288 -10 -10 -20 -18 -23 -18 -13 0 -159 -158 -209 -225 -15 -20
-16 -19 -40 10 -14 17 -34 40 -46 52 -11 12 -20 27 -20 32 0 5 -9 13 -21 16
-11 4 -18 9 -15 12 7 7 -92 100 -164 154 -95 71 -147 102 -242 148 -100 47
-201 86 -250 95 -13 3 -23 5 -23 6 0 6 -151 30 -212 34 -35 3 -67 7 -72 11 -5
3 -12 1 -15 -4 -4 -6 -18 -6 -35 -1 -16 4 -32 6 -34 3z"/>
</g>
</svg>
